-
      the fast  and The Hottest Private Tracker on the net

Please Seed back to make the speed Faster!!
 ............ NFO .............
-                              XViD is DEAD, Embrace the almighty x264!
             ,                                 ri                                                           
            .@M                     H@i,,,,,,;@@@@:            ...                                          
             @@:r@@@@@@@@@@@@@##@@@@@@@@@@@@@@@@@@@@@@@@@@@@@@@@@@@@2                                       
             M@@@@#BB###MM###MHA@@@#M########A&&AB#@@@@@@@@@@@@@@@@@@@@.                                    
 22;,9#AGG&h2#@@;hBs:,:##M;,,i@@BAGBAABMBBBBMHHHBMM################@@@@@:.   ....... ..  ...............:.  
 @@@@@@@@@@@@#M@#@MhMMA&GAAHBHMHh&GHBMHBMMMMM##MMBMBMM#BBHHBBBBBBHBBM#@@@@@M@@@@@@@@@@@@@@@@@@@@@@@@@@@@@A  
 :,  :r;::::,    &@AAAAAAAHBBHHHHBM#@@#@@@@#MAGABBBHH&3###MMMBABBHHBMH@B@A@@@.is,:;;;;;;;;;;;;;;;:;;:::9@h  
                  :,,........,;SHBh#AsXGi5MAAH&A#M#A3A2&AM@AB#MBHHBBBB#@@HBMh,S.                       ,@A  
                                          ##G##MBBM@#@     B 2@BHHHB#A  ,::rBMB@@@@@H2r,               :@A  
                                          @MA@###@h:@@       5@@#MBM#;           .;i9#@@@@@@A2r,        @M  
                                         :@BM@@##@r ;..   .   :X@#HB#.                  .:s3M@@@@@@#3r. @@  
                                         9@&#@###@              B@MM@@                          :r3#@@@@@@5 
                                         @@&@###@M               @@#@@M                               .:rAS 
                                        r@HM@###@r               :@##@@2                                    
                                        @@A@@##@@                 i###@@i                                   
                                       ;@M#@###@2                 ,@@@#Bs                                   
                                       @@#@###@@                   r,                                       
                                      H@#@@###@s                                                            
                                     S@@@####@#                                                             
                                    2@@@@###@@                                                              
                                    #@@@@@##@,                                                              
                                      ;M@@@@2                                                               
                                         i@@                                                                
                                    AKS74u
                                   Presents
------------------------------------------------------------------------------------------------------------------------------
Source: |||Blu-Ray|||
Subtitle(s): Yes (English, Spanish and frensh + source .sup files)
iMDB: http://www.imdb.com/title/tt0116996/
CRF-Setting: 19

General
Complete name                            : Mars.Attacks.1996.BDRip.AAC-5.1.x264-AKS74uma-bdrip-aks74u.mp4
Format                                   : MPEG-4
Format profile                           : Base Media
Codec ID                                 : isom
File size                                : 883 MiB
Duration                                 : 1h 45mn
Overall bit rate mode                    : Variable
Overall bit rate                         : 1 168 Kbps
Encoded date                             : UTC 2013-03-15 09:01:09
Tagged date                              : UTC 2013-03-15 09:01:09

Video
ID                                       : 1
Format                                   : AVC
Format/Info                              : Advanced Video Codec
Format profile                           : High@L3.1
Format settings, CABAC                   : Yes
Format settings, ReFrames                : 5 frames
Codec ID                                 : avc1
Codec ID/Info                            : Advanced Video Coding
Duration                                 : 1h 45mn
Bit rate                                 : 856 Kbps
Maximum bit rate                         : 6 263 Kbps
Width                                    : 720 pixels
Height                                   : 300 pixels
Display aspect ratio                     : 2.40:1
Frame rate mode                          : Constant
Frame rate                               : 23.976 fps
Color space                              : YUV
Chroma subsampling                       : 4:2:0
Bit depth                                : 8 bits
Scan type                                : Progressive
Bits/(Pixel*Frame)                       : 0.165
Stream size                              : 647 MiB (73%)
Writing library                          : x264 core 129 r2245 bc13772
Encoded date                             : UTC 2013-03-15 08:03:34
Tagged date                              : UTC 2013-03-15 09:02:41

Audio
ID                                       : 2
Format                                   : AAC
Format/Info                              : Advanced Audio Codec
Format profile                           : LC
Codec ID                                 : 40
Duration                                 : 1h 45mn
Bit rate mode                            : Variable
Bit rate                                 : 308 Kbps
Maximum bit rate                         : 379 Kbps
Channel(s)                               : 6 channels
Channel positions                        : Front: L C R, Side: L R, LFE
Sampling rate                            : 48.0 KHz
Compression mode                         : Lossy
Delay relative to video                  : 83ms
Stream size                              : 233 MiB (26%)
Language                                 : English
Encoded date                             : UTC 2013-03-15 08:00:32
Tagged date                              : UTC 2013-03-15 09:02:41
------------------------------------------------------------------------------------------------------------------------------
Plot: The Earth is invaded by Martians with irresistible weapons and a cruel sense of humor.
------------------------------------------------------------------------------------------------------------------------------
Notes: Enjoy!
------------------------------------------------------------------------------------------------------------------------------
Contact @ aks74u@hushmail.com
currently looking for ANYTHING. If you have something to offer, contact me!
------------------------------------------------------------------------------------------------------------------------------
Welcome to the few that give p2p a good name
CM8, Rx, AXED and SANTi just to name a few